<?xml version="1.0" encoding="UTF-8"?>
<svg id="Layer_2" data-name="Layer 2" xmlns="http://www.w3.org/2000/svg" viewBox="0 0 228.97 52.42">
  <defs>
    <style>
      .cls-1 {
        fill: #f5f5f5;
      }

      .cls-2 {
        fill: #f7559a;
      }
    </style>
  </defs>
  <g id="Layer_1-2" data-name="Layer 1">
    <g>
      <g>
        <path class="cls-2" d="m21.19,22.13c-.92,1.01-5.95,6.76-5.36,15.32.51,7.46,4.96,12.13,6.13,13.28-5.4,2.33-11.59,1.61-16.09-1.91C.03,44.22,0,37.2,0,36.42c0-.69.23-8.32,6.89-12.77,6.6-4.41,13.66-1.78,14.3-1.53Z"/>
        <path class="cls-2" d="m22.25,30.84c.99.94,6.6,6.14,15.16,5.79,7.47-.3,12.26-4.62,13.44-5.76,2.18,5.47,1.29,11.63-2.36,16.03-4.75,5.71-11.77,5.56-12.54,5.52-.69-.03-8.31-.47-12.57-7.25-4.22-6.72-1.4-13.71-1.13-14.33Z"/>
        <path class="cls-2" d="m29.86,30.15c.98-.95,6.4-6.34,6.41-14.91,0-7.48-4.11-12.44-5.19-13.67,5.55-1.95,11.68-.8,15.91,3.03,5.51,4.98,5.06,11.99,5,12.76-.06.69-.81,8.28-7.76,12.26-6.89,3.94-13.75.83-14.37.54Z"/>
        <path class="cls-2" d="m30.06,20.88c-1.03-.89-6.89-5.8-15.43-5.03-7.45.67-12.02,5.22-13.14,6.41C-.95,16.91-.37,10.71,3.06,6.14,7.52.2,14.54,0,15.31,0c.69,0,8.32.06,12.91,6.62,4.55,6.5,2.07,13.62,1.84,14.26Z"/>
      </g>
      <g>
        <path class="cls-1" d="m77.62,38.83c-1.77-.79-3.14-1.9-4.12-3.31-.98-1.42-1.47-3.05-1.47-4.9s.5-3.41,1.49-4.82c.99-1.42,2.38-2.52,4.17-3.31s3.8-1.19,6.06-1.19c3.15,0,5.58.59,7.31,1.76.68.43,1.2.92,1.54,1.46.34.54.51,1.06.51,1.57,0,.82-.33,1.46-1,1.94-.67.48-1.41.8-2.23.97-.82.17-1.27.19-1.36.07-.74-1.58-2.18-2.38-4.32-2.38-1.31,0-2.38.37-3.23,1.12s-1.27,1.68-1.27,2.81.42,2.14,1.27,2.88c.85.75,1.92,1.12,3.23,1.12,1.07,0,1.97-.21,2.7-.63.73-.42,1.27-.99,1.63-1.71,0-.05.12-.07.36-.07.47,0,1.05.1,1.72.29.67.19,1.25.52,1.76.99.5.47.76,1.07.76,1.82,0,.48-.18.99-.53,1.53s-.89,1.03-1.6,1.46c-1.69,1.15-4.1,1.73-7.22,1.73-2.32,0-4.36-.4-6.13-1.19Z"/>
        <path class="cls-1" d="m117.09,23.37c1.26,1.38,1.89,3.13,1.89,5.24v7.74c0,2.23-1.25,3.35-3.74,3.35h-.89c-1.25,0-2.21-.26-2.9-.77-.68-.52-1.02-1.37-1.02-2.57v-6.7c0-.86-.25-1.54-.74-2.02-.49-.48-1.17-.72-2.03-.72-1.07,0-1.89.25-2.47.76-.58.5-.87,1.21-.87,2.12v6.55c0,2.23-1.26,3.35-3.79,3.35h-.89c-1.22,0-2.17-.26-2.85-.77-.68-.52-1.02-1.37-1.02-2.57V14.96c0-.14.35-.31,1.05-.5.7-.19,1.45-.29,2.25-.29,1.48,0,2.73.4,3.74,1.19,1.01.79,1.51,2.15,1.51,4.07v5.11c1.54-2.16,3.83-3.24,6.86-3.24,2.67,0,4.64.69,5.9,2.07Z"/>
        <path class="cls-1" d="m125.11,30.44c2.3-.98,5.62-1.49,9.96-1.51h.94c0-.17-.03-.37-.09-.61-.21-1.42-1.32-2.12-3.34-2.12-2.23,0-3.7.71-4.41,2.12-.06.02-.2.05-.42.07-.22.02-.5.04-.82.04-1.13,0-2.15-.19-3.05-.56-.91-.37-1.36-1.04-1.36-2s.39-1.8,1.16-2.45c1.51-1.42,4.65-2.12,9.4-2.12,3.92,0,6.8.64,8.64,1.93s2.76,3.22,2.76,5.81v10.01c0,.19-.35.37-1.05.54-.7.17-1.46.25-2.29.25-1.96,0-3.36-.6-4.19-1.8-.3-.48-.48-.88-.54-1.19-.71.96-1.72,1.7-3.03,2.23-1.31.53-2.78.79-4.41.79-2.23,0-4-.46-5.32-1.39-1.32-.92-1.98-2.17-1.98-3.73,0-1.9,1.15-3.34,3.45-4.32Zm10.89,1.4l-1.2.04c-3.54.05-5.3.77-5.3,2.16,0,.53.23.95.69,1.26.46.31,1.08.47,1.85.47,1.16,0,2.09-.25,2.81-.74.71-.49,1.1-1.16,1.16-2v-1.19Z"/>
        <path class="cls-1" d="m149.82,33.65v-6.77h-.58c-1.1,0-1.93-.2-2.5-.59-.57-.4-.85-.98-.85-1.75v-.4c0-.79.28-1.4.85-1.84.56-.43,1.4-.65,2.5-.65h.58v-1.73c0-1.08.33-1.9.98-2.47.65-.56,1.6-.85,2.85-.85h.76c1.25,0,2.19.25,2.83.74.64.49.96,1.35.96,2.57v1.73h2.54c2.23,0,3.34.78,3.34,2.34v.4c0,1.66-1.14,2.48-3.43,2.48h-2.58v5.98c0,1.2.62,1.8,1.87,1.8.95,0,1.75-.37,2.41-1.12.15,0,.37.11.67.32s.57.52.82.9.38.83.38,1.33c0,.91-.4,1.72-1.2,2.41-.56.48-1.31.85-2.25,1.12s-2,.4-3.19.4c-5.17,0-7.75-2.12-7.75-6.37Z"/>
        <path class="cls-1" d="m188.2,23.28c1.26,1.32,1.89,3,1.89,5.04v8.03c0,2.23-1.26,3.35-3.79,3.35h-.89c-1.22,0-2.17-.26-2.85-.77-.68-.52-1.02-1.37-1.02-2.57v-6.84c0-.79-.25-1.42-.74-1.89s-1.18-.7-2.07-.7c-.71,0-1.36.13-1.94.38-.58.25-1.03.59-1.36,1.03v8.03c0,2.23-1.26,3.35-3.79,3.35h-.89c-1.25,0-2.21-.25-2.87-.76-.67-.5-1-1.37-1-2.59v-14.08c0-.14.34-.31,1.02-.5.68-.19,1.44-.29,2.27-.29,1.19,0,2.21.26,3.07.77.86.52,1.46,1.3,1.78,2.36,1.81-2.21,4.23-3.31,7.26-3.31,2.67,0,4.64.66,5.9,1.98Z"/>
        <path class="cls-1" d="m194.75,14.03c.82-.6,1.92-.9,3.32-.9s2.51.29,3.34.88c.83.59,1.25,1.4,1.25,2.43s-.4,1.81-1.2,2.39c-.8.59-1.92.88-3.34.88s-2.51-.29-3.34-.88c-.83-.59-1.25-1.39-1.25-2.39s.41-1.81,1.23-2.41Zm-.96,10.76c0-1.15.34-1.99,1.02-2.52.68-.53,1.62-.79,2.81-.79h.89c1.25,0,2.2.25,2.85.76s.98,1.36.98,2.56v11.56c0,2.23-1.25,3.35-3.74,3.35h-.89c-1.25,0-2.21-.26-2.9-.77-.68-.52-1.02-1.37-1.02-2.57v-11.56Z"/>
        <path class="cls-1" d="m206.32,14.96c0-.14.35-.31,1.05-.5.7-.19,1.45-.29,2.25-.29,1.49,0,2.73.4,3.74,1.19,1.01.79,1.51,2.15,1.51,4.07v9.25l4.41-5.18c.53-.72,1.2-1.25,2-1.58.8-.34,1.62-.5,2.45-.5s1.57.14,2.29.41c.73.28,1.32.59,1.78.95.46.36.65.61.56.76l-6.02,6.8,6.59,7.38c.09.12-.1.36-.58.72-.48.36-1.09.68-1.85.95-.76.28-1.52.41-2.29.41-.89,0-1.75-.17-2.56-.5-.82-.34-1.51-.88-2.07-1.62l-4.72-5.33v4c0,2.23-1.25,3.35-3.74,3.35h-.89c-1.25,0-2.21-.26-2.9-.77-.68-.52-1.02-1.37-1.02-2.57V14.96Z"/>
      </g>
    </g>
  </g>
</svg>